<svg width="512" height="512" fill="none" xmlns="http://www.w3.org/2000/svg"><path fill-rule="evenodd" clip-rule="evenodd" d="M0 60C0 26.863 26.863 0 60 0h392c33.137 0 60 26.863 60 60v53.179H0V60zm0 96.295h512V452c0 33.137-26.863 60-60 60H60c-33.137 0-60-26.863-60-60V156.295zm134.737 145.516c20.836 0 37.726-16.891 37.726-37.727 0-20.835-16.89-37.726-37.726-37.726S97.01 243.249 97.01 264.084c0 20.836 16.891 37.727 37.727 37.727zm158.989-37.727c0 20.836-16.89 37.727-37.726 37.727s-37.726-16.891-37.726-37.727c0-20.835 16.89-37.726 37.726-37.726s37.726 16.891 37.726 37.726zm83.537 37.727c20.836 0 37.727-16.891 37.727-37.727 0-20.835-16.891-37.726-37.727-37.726-20.835 0-37.726 16.891-37.726 37.726 0 20.836 16.891 37.727 37.726 37.727zm-83.537 91.621c0 20.835-16.89 37.726-37.726 37.726s-37.726-16.891-37.726-37.726c0-20.836 16.89-37.727 37.726-37.727s37.726 16.891 37.726 37.727zm-158.989 37.726c20.836 0 37.726-16.891 37.726-37.726 0-20.836-16.89-37.727-37.726-37.727S97.01 372.596 97.01 393.432c0 20.835 16.891 37.726 37.727 37.726z" fill="#C4C4C4"/></svg>