<svg height="512" width="512" xmlns="http://www.w3.org/2000/svg"><path d="M256 150.5c-41.353 0-75-33.647-75-75s33.647-75 75-75 75 33.647 75 75-33.647 75-75 75zM10.026 429c-20.669-35.815-8.35-81.768 27.466-102.451 36.551-21.085 82.083-7.806 102.451 27.451 20.722 35.87 8.44 81.717-27.451 102.451-35.96 20.737-81.757 8.396-102.466-27.451zM399.508 456.451C363.641 435.73 351.323 389.89 372.057 354c20.367-35.256 65.898-48.537 102.451-27.451 35.815 20.684 48.135 66.636 27.466 102.451-20.683 35.802-66.455 48.218-102.466 27.451zM61.293 275.587l-29.941-1.641c3.896-70.957 41.807-136.641 101.396-175.723l16.465 25.078c-51.665 33.883-84.522 90.821-87.92 152.286z"/><g><path d="M450.707 275.587c-3.398-61.465-36.255-118.403-87.92-152.285l16.465-25.078c59.59 39.082 97.5 104.766 101.396 175.723z"/></g><g><path d="M256 511.5c-35.684 0-69.8-8.115-101.426-24.097l13.535-26.777c54.785 27.715 120.996 27.715 175.781 0l13.535 26.777C325.8 503.385 291.684 511.5 256 511.5z"/></g></svg>